<svg width="144" height="75" viewBox="0 0 144 75" fill="none" xmlns="http://www.w3.org/2000/svg">
<g clip-path="url(#clip0_3_15280)">
<path d="M59.1834 11.3518H56.6899V13.8344H59.1834V11.3518Z" fill="black"/>
<path d="M64.17 11.3519H66.6634V9H64.17H61.6765H59.1831V11.3519H61.6765H64.17Z" fill="black"/>
<path d="M69.2957 11.3518H66.8022V13.8344H69.2957V11.3518Z" fill="black"/>
<path d="M71.7893 13.8345H69.2959V16.1864H71.7893V13.8345Z" fill="black"/>
<path d="M74.283 11.3518H71.7896V13.8344H74.283V11.3518Z" fill="black"/>
<path d="M79.4076 9H76.7757H76.4986H74.2822V11.3519H76.4986H76.7757H79.4076H81.901V9H79.4076Z" fill="black"/>
<path d="M84.3948 11.3518H81.9014V13.8344H84.3948V11.3518Z" fill="black"/>
<path d="M84.395 13.8345V16.1864V18.5383V23.3728H87.027V18.5383V16.1864V13.8345H84.395Z" fill="black"/>
<path d="M84.3948 23.3728H81.9014V25.7247H84.3948V23.3728Z" fill="black"/>
<path d="M81.9016 25.7249H79.4082V28.0768H81.9016V25.7249Z" fill="black"/>
<path d="M79.4083 28.0767H76.7764V30.4286H79.4083V28.0767Z" fill="black"/>
<path d="M76.7757 30.4285H74.2822V32.7804H76.7757V30.4285Z" fill="black"/>
<path d="M74.283 32.9111H71.7896V35.2631H74.283V32.9111Z" fill="black"/>
<path d="M71.7893 35.2629H69.2959V37.6149H71.7893V35.2629Z" fill="black"/>
<path d="M69.2957 32.9111H66.8022V35.2631H69.2957V32.9111Z" fill="black"/>
<path d="M66.8024 30.4285H64.1704V32.911H66.8024V30.4285Z" fill="black"/>
<path d="M64.1702 28.0767H61.6768V30.4286H64.1702V28.0767Z" fill="black"/>
<path d="M61.6765 25.7249H59.1831V28.0768H61.6765V25.7249Z" fill="black"/>
<path d="M59.1834 23.3728H56.6899V25.7247H59.1834V23.3728Z" fill="black"/>
<path d="M56.6901 20.8902V18.5383V16.1864V13.8345H54.0581V16.1864V18.5383V20.8902V23.2421H56.6901V20.8902Z" fill="black"/>
<path d="M81.9017 13.8344V11.3518H79.4083H76.7764H76.2223H74.2829V13.8344H71.7895V16.1863H69.2961V13.8344H66.8027V11.3518H64.1707H61.6773V13.8344H59.1839V16.1863H56.6904V23.3727H59.1839V25.7246H61.6773V28.0765H64.1707V30.4285H66.8027V32.911H69.2961V35.263H71.7895V32.911H74.2829V30.4285H76.7764V28.0765H79.4083V25.7246H81.9017V23.3727H84.3952V13.8344H81.9017Z" fill="#CE0002"/>
<path d="M98.4016 10.3518H95.9082V12.8344H98.4016V10.3518Z" fill="black"/>
<path d="M103.388 10.3519H105.882V8H103.388H100.895H98.4014V10.3519H100.895H103.388Z" fill="black"/>
<path d="M108.514 10.3518H106.021V12.8344H108.514V10.3518Z" fill="black"/>
<path d="M111.008 12.8345H108.514V15.1864H111.008V12.8345Z" fill="black"/>
<path d="M113.501 10.3518H111.008V12.8344H113.501V10.3518Z" fill="black"/>
<path d="M118.626 8H115.994H115.717H113.5V10.3519H115.717H115.994H118.626H121.119V8H118.626Z" fill="black"/>
<path d="M123.613 10.3518H121.12V12.8344H123.613V10.3518Z" fill="black"/>
<path d="M123.613 12.8345V15.1864V17.5383V22.3728H126.245V17.5383V15.1864V12.8345H123.613Z" fill="black"/>
<path d="M123.613 22.3728H121.12V24.7247H123.613V22.3728Z" fill="black"/>
<path d="M121.12 24.7249H118.626V27.0768H121.12V24.7249Z" fill="black"/>
<path d="M118.626 27.0767H115.994V29.4286H118.626V27.0767Z" fill="black"/>
<path d="M115.994 29.4285H113.5V31.7804H115.994V29.4285Z" fill="black"/>
<path d="M113.501 31.9111H111.008V34.2631H113.501V31.9111Z" fill="black"/>
<path d="M111.008 34.2629H108.514V36.6149H111.008V34.2629Z" fill="black"/>
<path d="M108.514 31.9111H106.021V34.2631H108.514V31.9111Z" fill="black"/>
<path d="M106.021 29.4285H103.389V31.911H106.021V29.4285Z" fill="black"/>
<path d="M103.388 27.0767H100.895V29.4286H103.388V27.0767Z" fill="black"/>
<path d="M100.895 24.7249H98.4014V27.0768H100.895V24.7249Z" fill="black"/>
<path d="M98.4016 22.3728H95.9082V24.7247H98.4016V22.3728Z" fill="black"/>
<path d="M95.9083 19.8902V17.5383V15.1864V12.8345H93.2764V15.1864V17.5383V19.8902V22.2421H95.9083V19.8902Z" fill="black"/>
<path d="M121.12 12.8344V10.3518H118.627H115.995H115.441H113.501V12.8344H111.008V15.1863H108.514V12.8344H106.021V10.3518H103.389H100.896V12.8344H98.4021V15.1863H95.9087V22.3727H98.4021V24.7246H100.896V27.0765H103.389V29.4285H106.021V31.911H108.514V34.263H111.008V31.911H113.501V29.4285H115.995V27.0765H118.627V24.7246H121.12V22.3727H123.613V12.8344H121.12Z" fill="#CE0002"/>
<path d="M20.2244 10.9756H17.731V13.4582H20.2244V10.9756Z" fill="black"/>
<path d="M25.211 10.9757H27.7044V8.62378H25.211H22.7175H20.2241V10.9757H22.7175H25.211Z" fill="black"/>
<path d="M30.3367 10.9756H27.8433V13.4582H30.3367V10.9756Z" fill="black"/>
<path d="M32.8303 13.4583H30.3369V15.8102H32.8303V13.4583Z" fill="black"/>
<path d="M35.324 10.9756H32.8306V13.4582H35.324V10.9756Z" fill="black"/>
<path d="M40.4486 8.62378H37.8167H37.5396H35.3232V10.9757H37.5396H37.8167H40.4486H42.942V8.62378H40.4486Z" fill="black"/>
<path d="M45.4358 10.9756H42.9424V13.4582H45.4358V10.9756Z" fill="black"/>
<path d="M45.436 13.4583V15.8102V18.1621V22.9966H48.068V18.1621V15.8102V13.4583H45.436Z" fill="black"/>
<path d="M45.4358 22.9966H42.9424V25.3485H45.4358V22.9966Z" fill="black"/>
<path d="M42.9426 25.3486H40.4492V27.7006H42.9426V25.3486Z" fill="black"/>
<path d="M40.4493 27.7004H37.8174V30.0524H40.4493V27.7004Z" fill="black"/>
<path d="M37.8167 30.0522H35.3232V32.4042H37.8167V30.0522Z" fill="black"/>
<path d="M35.324 32.5349H32.8306V34.8868H35.324V32.5349Z" fill="black"/>
<path d="M32.8303 34.8867H30.3369V37.2386H32.8303V34.8867Z" fill="black"/>
<path d="M30.3367 32.5349H27.8433V34.8868H30.3367V32.5349Z" fill="black"/>
<path d="M27.8434 30.0522H25.2114V32.5348H27.8434V30.0522Z" fill="black"/>
<path d="M25.2112 27.7004H22.7178V30.0524H25.2112V27.7004Z" fill="black"/>
<path d="M22.7175 25.3486H20.2241V27.7006H22.7175V25.3486Z" fill="black"/>
<path d="M20.2244 22.9966H17.731V25.3485H20.2244V22.9966Z" fill="black"/>
<path d="M17.7311 20.514V18.1621V15.8102V13.4583H15.0991V15.8102V18.1621V20.514V22.8659H17.7311V20.514Z" fill="black"/>
<path d="M42.9428 13.4582V10.9756H40.4493H37.8174H37.2633H35.324V13.4582H32.8305V15.8101H30.3371V13.4582H27.8437V10.9756H25.2117H22.7183V13.4582H20.2249V15.8101H17.7314V22.9965H20.2249V25.3484H22.7183V27.7003H25.2117V30.0522H27.8437V32.5348H30.3371V34.8867H32.8305V32.5348H35.324V30.0522H37.8174V27.7003H40.4493V25.3484H42.9428V22.9965H45.4362V13.4582H42.9428Z" fill="#CE0002"/>
<path d="M43.0859 66.7148H43.2031C43.6589 66.7148 44.0495 66.5781 44.375 66.3047C44.7135 66.0443 44.8828 65.6862 44.8828 65.2305C44.8828 64.918 44.8307 64.6576 44.7266 64.4492C44.6224 64.2409 44.4922 64.0781 44.3359 63.9609C44.1797 63.8307 44.0169 63.7461 43.8477 63.707C43.6914 63.6549 43.5547 63.6289 43.4375 63.6289C42.9557 63.6549 42.5391 63.8047 42.1875 64.0781C41.849 64.3646 41.6797 64.7747 41.6797 65.3086C41.6797 65.6862 41.8034 66.0117 42.0508 66.2852C42.3112 66.5586 42.6562 66.7018 43.0859 66.7148ZM43.1641 68.0039C43.112 68.0039 43.0599 68.0039 43.0078 68.0039C42.9688 68.0169 42.9297 68.0234 42.8906 68.0234C42.487 68.0234 42.1159 67.9518 41.7773 67.8086C41.4518 67.6654 41.1654 67.4701 40.918 67.2227C40.6836 66.9883 40.5013 66.7083 40.3711 66.3828C40.2409 66.0573 40.1758 65.7188 40.1758 65.3672C40.1758 65.0026 40.2344 64.6641 40.3516 64.3516C40.4688 64.0521 40.625 63.7786 40.8203 63.5312C41.0156 63.2708 41.237 63.0495 41.4844 62.8672C41.7448 62.6849 42.0117 62.5417 42.2852 62.4375C42.194 62.2682 42.1224 62.0859 42.0703 61.8906C42.0182 61.6953 41.9922 61.487 41.9922 61.2656C41.9922 61.1745 41.9987 61.0898 42.0117 61.0117C42.0247 60.9206 42.0443 60.8229 42.0703 60.7188C41.6406 60.5495 41.276 60.2826 40.9766 59.918C40.6771 59.5534 40.5273 59.1042 40.5273 58.5703C40.5273 58.2448 40.5924 57.8997 40.7227 57.5352C40.8659 57.1576 41.0807 56.819 41.3672 56.5195C41.5365 56.3503 41.6862 56.168 41.8164 55.9727C41.9466 55.7773 42.0052 55.4583 41.9922 55.0156V54.6055C41.9922 54.4362 42.0573 54.3125 42.1875 54.2344C42.3177 54.1432 42.474 54.0977 42.6562 54.0977C42.9948 54.0977 43.2227 54.1888 43.3398 54.3711C43.457 54.5404 43.5156 54.7747 43.5156 55.0742C43.5156 55.3737 43.4831 55.6406 43.418 55.875C43.7305 55.9141 44.0234 56.0182 44.2969 56.1875C44.5833 56.3438 44.8307 56.5391 45.0391 56.7734C45.2474 56.9948 45.4102 57.2422 45.5273 57.5156C45.6576 57.7891 45.7227 58.0625 45.7227 58.3359C45.7227 58.7005 45.6576 59.0326 45.5273 59.332C45.3971 59.6315 45.2279 59.8919 45.0195 60.1133C44.8112 60.3216 44.5768 60.4974 44.3164 60.6406C44.056 60.7708 43.7956 60.8555 43.5352 60.8945C43.5221 60.9596 43.5091 61.0247 43.4961 61.0898C43.4961 61.1419 43.4961 61.2005 43.4961 61.2656C43.4961 61.4479 43.5221 61.6237 43.5742 61.793C43.6263 61.9492 43.6979 62.099 43.7891 62.2422C44.0755 62.2812 44.3685 62.3659 44.668 62.4961C44.9674 62.6263 45.2409 62.8086 45.4883 63.043C45.7487 63.2643 45.957 63.5378 46.1133 63.8633C46.2826 64.1888 46.3672 64.5664 46.3672 64.9961C46.3672 65.5039 46.2891 65.9401 46.1328 66.3047C45.9766 66.6693 45.7552 66.9688 45.4688 67.2031C45.1823 67.4375 44.8438 67.6198 44.4531 67.75C44.0625 67.8802 43.6328 67.9648 43.1641 68.0039ZM42.793 57.0664L42.3438 57.5742C42.2396 57.7044 42.168 57.8477 42.1289 58.0039C42.0898 58.1602 42.0703 58.3424 42.0703 58.5508C42.0703 58.8112 42.1745 59.0456 42.3828 59.2539C42.5911 59.4622 42.8906 59.5664 43.2812 59.5664C43.3724 59.5664 43.4701 59.5404 43.5742 59.4883C43.6784 59.4232 43.776 59.3451 43.8672 59.2539C43.9583 59.1497 44.0365 59.0391 44.1016 58.9219C44.1667 58.7917 44.1992 58.6549 44.1992 58.5117C44.1992 58.0951 44.0755 57.776 43.8281 57.5547C43.5938 57.3333 43.2487 57.1706 42.793 57.0664ZM50.4883 57.9062C50.5664 57.8411 50.6771 57.8086 50.8203 57.8086C51.263 57.8477 51.6602 57.9714 52.0117 58.1797C52.3633 58.375 52.6562 58.6224 52.8906 58.9219C53.138 59.2083 53.3203 59.5273 53.4375 59.8789C53.5677 60.2305 53.6328 60.569 53.6328 60.8945V60.9922C53.724 61.2917 53.8216 61.526 53.9258 61.6953C54.0299 61.8646 54.1406 61.9948 54.2578 62.0859C54.388 62.1771 54.5117 62.2357 54.6289 62.2617C54.7591 62.2747 54.8893 62.2812 55.0195 62.2812C55.1367 62.2812 55.2604 62.2552 55.3906 62.2031C55.5339 62.151 55.6966 62.125 55.8789 62.125C56.0482 62.125 56.1849 62.1966 56.2891 62.3398C56.4062 62.4701 56.4648 62.6133 56.4648 62.7695C56.4648 62.9128 56.4193 63.043 56.3281 63.1602C56.25 63.2643 56.1393 63.3555 55.9961 63.4336C55.8659 63.4987 55.7161 63.5508 55.5469 63.5898C55.3906 63.6159 55.2344 63.6289 55.0781 63.6289C54.5833 63.6289 54.1536 63.5247 53.7891 63.3164C53.4245 63.1081 53.138 62.8672 52.9297 62.5938C52.6693 62.8932 52.3568 63.1276 51.9922 63.2969C51.6276 63.4661 51.2435 63.5508 50.8398 63.5508C50.4753 63.5508 50.1107 63.4922 49.7461 63.375C49.3815 63.2578 49.056 63.082 48.7695 62.8477C48.4831 62.6133 48.2487 62.3268 48.0664 61.9883C47.8841 61.6367 47.793 61.2266 47.793 60.7578C47.793 60.4844 47.8385 60.1979 47.9297 59.8984C48.0339 59.599 48.1836 59.3125 48.3789 59.0391C48.5742 58.7656 48.8086 58.5247 49.082 58.3164C49.3685 58.1081 49.7005 57.9648 50.0781 57.8867H50.1953C50.3255 57.8867 50.4232 57.8932 50.4883 57.9062ZM50.6055 59.1367C50.1497 59.2799 49.8177 59.4883 49.6094 59.7617C49.401 60.0221 49.2969 60.3281 49.2969 60.6797C49.2969 61.0964 49.401 61.4544 49.6094 61.7539C49.8307 62.0404 50.2344 62.1836 50.8203 62.1836C51.1589 62.1836 51.4583 62.0599 51.7188 61.8125C51.9792 61.5651 52.1094 61.2331 52.1094 60.8164C52.1094 60.5299 52.0638 60.2956 51.9727 60.1133C51.8945 59.918 51.7839 59.7617 51.6406 59.6445C51.5104 59.5143 51.3542 59.4167 51.1719 59.3516C50.9896 59.2734 50.8008 59.2018 50.6055 59.1367ZM57.5391 58.2773C57.4349 58.1341 57.3828 58.0039 57.3828 57.8867C57.3828 57.6914 57.474 57.5221 57.6562 57.3789C57.8385 57.2357 58.0273 57.1641 58.2227 57.1641C58.3529 57.1641 58.4701 57.2031 58.5742 57.2812C58.6914 57.3594 58.7891 57.457 58.8672 57.5742C58.9453 57.6784 59.0169 57.7956 59.082 57.9258C59.1471 58.043 59.2057 58.1471 59.2578 58.2383C59.4792 58.1602 59.7135 58.0951 59.9609 58.043C60.2083 57.9909 60.4818 57.9648 60.7812 57.9648C61.0417 57.9648 61.3151 57.9909 61.6016 58.043C61.901 58.082 62.207 58.1927 62.5195 58.375C62.7799 58.2448 63.0794 58.1471 63.418 58.082C63.7565 58.0169 64.1081 57.9844 64.4727 57.9844C64.7201 57.9844 65 58.0039 65.3125 58.043C65.625 58.082 65.918 58.2122 66.1914 58.4336C66.4648 58.6419 66.6927 58.974 66.875 59.4297C67.0573 59.8724 67.1484 60.4974 67.1484 61.3047C67.1484 61.6953 67.1419 62.0729 67.1289 62.4375C67.1159 62.8021 67.0768 63.1276 67.0117 63.4141C66.9596 63.6875 66.875 63.9089 66.7578 64.0781C66.6406 64.2474 66.4779 64.332 66.2695 64.332C66.1003 64.332 65.931 64.2799 65.7617 64.1758C65.6055 64.0716 65.5273 63.9284 65.5273 63.7461C65.5273 63.5247 65.5534 63.2513 65.6055 62.9258C65.6576 62.6003 65.6836 62.2682 65.6836 61.9297C65.6836 61.5 65.6771 61.1224 65.6641 60.7969C65.651 60.4714 65.599 60.2044 65.5078 59.9961C65.4167 59.7747 65.2799 59.612 65.0977 59.5078C64.9154 59.4036 64.6549 59.3516 64.3164 59.3516C63.9648 59.3516 63.6263 59.4102 63.3008 59.5273L63.3594 59.7617C63.3984 59.957 63.4245 60.1914 63.4375 60.4648C63.4635 60.7253 63.4766 61.0052 63.4766 61.3047C63.4766 61.6302 63.4766 61.9753 63.4766 62.3398C63.4766 62.6914 63.457 63.0169 63.418 63.3164C63.3789 63.6029 63.3008 63.8438 63.1836 64.0391C63.0794 64.2344 62.9167 64.332 62.6953 64.332C62.474 64.332 62.2852 64.2669 62.1289 64.1367C61.9857 64.0065 61.9141 63.8372 61.9141 63.6289C61.9141 63.2643 61.9336 62.8411 61.9727 62.3594C62.0117 61.8776 62.0312 61.4414 62.0312 61.0508C62.0312 60.5299 61.9401 60.1198 61.7578 59.8203C61.5755 59.5078 61.2174 59.3516 60.6836 59.3516C60.3841 59.3516 60.0911 59.4036 59.8047 59.5078V59.5273C59.8177 59.8659 59.8242 60.2305 59.8242 60.6211C59.8372 60.9987 59.8438 61.3828 59.8438 61.7734C59.8438 62.125 59.8438 62.457 59.8438 62.7695C59.8438 63.082 59.8177 63.3555 59.7656 63.5898C59.7135 63.8242 59.6224 64.013 59.4922 64.1562C59.375 64.2995 59.1927 64.3711 58.9453 64.3711C58.763 64.3451 58.6133 64.2799 58.4961 64.1758C58.3789 64.0716 58.3203 63.9349 58.3203 63.7656C58.3203 63.375 58.3333 62.9648 58.3594 62.5352C58.3854 62.1055 58.3984 61.6432 58.3984 61.1484C58.3984 60.901 58.3919 60.6797 58.3789 60.4844C58.3789 60.2891 58.3724 60.1003 58.3594 59.918C58.2161 59.6966 58.0859 59.4492 57.9688 59.1758C57.8646 58.8893 57.7214 58.5898 57.5391 58.2773ZM74.8438 58.5898C75.2474 59.1497 75.4492 59.638 75.4492 60.0547C75.4492 60.4974 75.2214 60.7904 74.7656 60.9336L70.6836 62.1445C70.8529 62.4049 71.0677 62.6068 71.3281 62.75C71.6016 62.8932 71.875 62.9648 72.1484 62.9648C72.5781 62.9648 72.9818 62.8997 73.3594 62.7695C73.75 62.6263 74.1146 62.3789 74.4531 62.0273C74.5443 61.9362 74.6484 61.8906 74.7656 61.8906C74.9219 61.8906 75.0781 61.9688 75.2344 62.125C75.4036 62.2682 75.4883 62.431 75.4883 62.6133C75.4883 62.7956 75.3971 62.9844 75.2148 63.1797C75.0456 63.375 74.8177 63.5638 74.5312 63.7461C74.2448 63.9154 73.9193 64.0521 73.5547 64.1562C73.1901 64.2734 72.819 64.332 72.4414 64.332C72.0638 64.332 71.6602 64.2734 71.2305 64.1562C70.8138 64.0391 70.4232 63.8568 70.0586 63.6094C69.694 63.349 69.3945 63.0169 69.1602 62.6133C68.9258 62.2096 68.8086 61.7148 68.8086 61.1289C68.8086 60.5039 69.0104 59.7878 69.4141 58.9805C69.6745 58.4727 70.0716 58.1016 70.6055 57.8672C71.1523 57.6198 71.7253 57.4961 72.3242 57.4961C72.819 57.4961 73.2878 57.5872 73.7305 57.7695C74.1862 57.9518 74.5573 58.2253 74.8438 58.5898ZM70.3516 60.8359L73.9062 59.8008C73.8411 59.4622 73.6654 59.2148 73.3789 59.0586C73.1055 58.8893 72.7995 58.8047 72.4609 58.8047C72.0833 58.8047 71.7578 58.8763 71.4844 59.0195C71.224 59.1497 71.0091 59.319 70.8398 59.5273C70.6706 59.7357 70.5469 59.957 70.4688 60.1914C70.3906 60.4258 70.3516 60.6406 70.3516 60.8359ZM77.2656 53.9805C77.1615 53.8372 77.1094 53.707 77.1094 53.5898C77.1094 53.3945 77.2005 53.2253 77.3828 53.082C77.5651 52.9388 77.7539 52.8672 77.9492 52.8672C78.1315 52.8672 78.3073 52.9583 78.4766 53.1406C78.6589 53.3229 78.8216 53.5443 78.9648 53.8047C79.1081 54.0521 79.2383 54.3125 79.3555 54.5859C79.4727 54.8464 79.5703 55.0612 79.6484 55.2305C79.6875 55.7904 79.7135 56.3568 79.7266 56.9297C79.7396 57.4896 79.7461 58.0625 79.7461 58.6484C79.7461 59.5859 79.7331 60.4909 79.707 61.3633C79.694 62.2227 79.6745 63.043 79.6484 63.8242C79.6354 64.0195 79.5703 64.1628 79.4531 64.2539C79.3359 64.3581 79.1927 64.4102 79.0234 64.4102C78.8281 64.4102 78.6328 64.3516 78.4375 64.2344C78.2552 64.1172 78.1641 63.9544 78.1641 63.7461C78.1641 63.1992 78.1836 62.5807 78.2227 61.8906C78.2747 61.1875 78.3008 60.4583 78.3008 59.7031C78.3008 58.987 78.2943 58.2773 78.2812 57.5742C78.2682 56.8581 78.2422 56.207 78.2031 55.6211C78.0859 55.3737 77.9492 55.1068 77.793 54.8203C77.6367 54.5339 77.4609 54.2539 77.2656 53.9805ZM84.1992 57.9062C84.2773 57.8411 84.388 57.8086 84.5312 57.8086C84.974 57.8477 85.3711 57.9714 85.7227 58.1797C86.0742 58.375 86.3672 58.6224 86.6016 58.9219C86.849 59.2083 87.0312 59.5273 87.1484 59.8789C87.2786 60.2305 87.3438 60.569 87.3438 60.8945V60.9922C87.4349 61.2917 87.5326 61.526 87.6367 61.6953C87.7409 61.8646 87.8516 61.9948 87.9688 62.0859C88.099 62.1771 88.2227 62.2357 88.3398 62.2617C88.4701 62.2747 88.6003 62.2812 88.7305 62.2812C88.8477 62.2812 88.9714 62.2552 89.1016 62.2031C89.2448 62.151 89.4076 62.125 89.5898 62.125C89.7591 62.125 89.8958 62.1966 90 62.3398C90.1172 62.4701 90.1758 62.6133 90.1758 62.7695C90.1758 62.9128 90.1302 63.043 90.0391 63.1602C89.9609 63.2643 89.8503 63.3555 89.707 63.4336C89.5768 63.4987 89.4271 63.5508 89.2578 63.5898C89.1016 63.6159 88.9453 63.6289 88.7891 63.6289C88.2943 63.6289 87.8646 63.5247 87.5 63.3164C87.1354 63.1081 86.849 62.8672 86.6406 62.5938C86.3802 62.8932 86.0677 63.1276 85.7031 63.2969C85.3385 63.4661 84.9544 63.5508 84.5508 63.5508C84.1862 63.5508 83.8216 63.4922 83.457 63.375C83.0924 63.2578 82.7669 63.082 82.4805 62.8477C82.194 62.6133 81.9596 62.3268 81.7773 61.9883C81.5951 61.6367 81.5039 61.2266 81.5039 60.7578C81.5039 60.4844 81.5495 60.1979 81.6406 59.8984C81.7448 59.599 81.8945 59.3125 82.0898 59.0391C82.2852 58.7656 82.5195 58.5247 82.793 58.3164C83.0794 58.1081 83.4115 57.9648 83.7891 57.8867H83.9062C84.0365 57.8867 84.1341 57.8932 84.1992 57.9062ZM84.3164 59.1367C83.8607 59.2799 83.5286 59.4883 83.3203 59.7617C83.112 60.0221 83.0078 60.3281 83.0078 60.6797C83.0078 61.0964 83.112 61.4544 83.3203 61.7539C83.5417 62.0404 83.9453 62.1836 84.5312 62.1836C84.8698 62.1836 85.1693 62.0599 85.4297 61.8125C85.6901 61.5651 85.8203 61.2331 85.8203 60.8164C85.8203 60.5299 85.7747 60.2956 85.6836 60.1133C85.6055 59.918 85.4948 59.7617 85.3516 59.6445C85.2214 59.5143 85.0651 59.4167 84.8828 59.3516C84.7005 59.2734 84.5117 59.2018 84.3164 59.1367ZM91.2891 54.0195C91.1849 53.9023 91.1328 53.7721 91.1328 53.6289C91.1328 53.4206 91.2174 53.2513 91.3867 53.1211C91.569 52.9779 91.7578 52.9062 91.9531 52.9062C92.1484 52.9062 92.3372 53.0104 92.5195 53.2188C92.7018 53.4141 92.8646 53.6484 93.0078 53.9219C93.151 54.1823 93.2747 54.4362 93.3789 54.6836C93.4831 54.931 93.5547 55.1003 93.5938 55.1914L93.6523 56.6953C93.6523 56.9557 93.6523 57.2161 93.6523 57.4766C93.6654 57.724 93.6784 57.9714 93.6914 58.2188C93.9128 58.0625 94.1797 57.9388 94.4922 57.8477C94.8177 57.7435 95.1302 57.6914 95.4297 57.6914C95.7422 57.6914 96.0677 57.7565 96.4062 57.8867C96.7448 58.0169 97.0573 58.2057 97.3438 58.4531C97.6302 58.7005 97.8646 59.0065 98.0469 59.3711C98.2292 59.7357 98.3203 60.1523 98.3203 60.6211C98.3203 61.1419 98.2292 61.6042 98.0469 62.0078C97.8776 62.4115 97.6367 62.7565 97.3242 63.043C97.0117 63.3164 96.6406 63.5247 96.2109 63.668C95.7812 63.8112 95.3125 63.8828 94.8047 63.8828C94.5573 63.8828 94.3229 63.8503 94.1016 63.7852C93.8932 63.707 93.6979 63.6029 93.5156 63.4727C93.4505 63.6419 93.3529 63.7656 93.2227 63.8438C93.1055 63.9219 92.9753 63.9609 92.832 63.9609C92.6367 63.9609 92.4609 63.9023 92.3047 63.7852C92.1484 63.668 92.0703 63.4987 92.0703 63.2773C92.1094 62.6003 92.1419 61.8385 92.168 60.9922C92.207 60.1328 92.2266 59.2734 92.2266 58.4141C92.2266 57.8802 92.2201 57.3724 92.207 56.8906C92.194 56.4089 92.1745 55.9596 92.1484 55.543C92.0312 55.2956 91.9076 55.0482 91.7773 54.8008C91.6471 54.5534 91.4844 54.293 91.2891 54.0195ZM93.6719 60.6797C93.6719 60.7839 93.6654 60.888 93.6523 60.9922C93.6523 61.0964 93.6523 61.194 93.6523 61.2852C93.6914 61.6367 93.8216 61.9427 94.043 62.2031C94.2773 62.4505 94.5964 62.5742 95 62.5742C95.5599 62.5742 96.0026 62.4115 96.3281 62.0859C96.6667 61.7604 96.8359 61.3503 96.8359 60.8555C96.8229 60.556 96.7708 60.2956 96.6797 60.0742C96.5885 59.8529 96.4779 59.6706 96.3477 59.5273C96.2174 59.3711 96.0742 59.2539 95.918 59.1758C95.7617 59.0977 95.612 59.0586 95.4688 59.0586C94.8698 59.0977 94.4401 59.2604 94.1797 59.5469C93.9193 59.8203 93.75 60.1979 93.6719 60.6797Z" fill="black"/>
</g>
<defs>
<clipPath id="clip0_3_15280">
<rect width="143.095" height="75" fill="white"/>
</clipPath>
</defs>
</svg>
